<svg width="117" height="25" viewBox="0 0 117 25" xmlns="http://www.w3.org/2000/svg"><path d="M45.13 10.875V.356h4.488v24.051H45.13V23.05c-.126.061-.177.073-.21.104-1.683 1.565-3.689 1.959-5.85 1.433-2.848-.691-4.562-2.624-5.267-5.4-.714-2.817-.233-5.442 1.694-7.704 2.027-2.38 5.603-3.054 8.275-1.562.446.249.844.589 1.358.955zm.15 6.292c.002-.769-.093-1.352-.326-1.897-.547-1.28-1.508-2.063-2.904-2.214-1.317-.142-2.438.296-3.233 1.376-.936 1.274-1.045 2.687-.512 4.144a3.547 3.547 0 004.968 1.928c1.414-.731 1.935-1.998 2.006-3.337zm-19.305-6.309V9.521h4.452c.116.362.17 13.66.053 14.896-1.47.058-2.947.008-4.481.028v-1.433c-.186.145-.29.218-.385.302-1.01.899-2.205 1.352-3.54 1.451-3.645.267-6.307-2.11-7.208-4.906-.98-3.045-.596-5.899 1.515-8.393 2.008-2.37 5.573-3.032 8.231-1.56.462.255.87.604 1.363.952zm-7.176 6.123c0 .427.187 1.094.383 1.603.517 1.34 1.515 2.14 2.955 2.283 1.405.14 2.545-.381 3.344-1.569.98-1.457.865-3.653-.25-5.01-1.36-1.658-4-1.684-5.397-.055-.674.786-1.035 1.708-1.035 2.748zm76.803 3.836h5.318v3.587H85.81c-.119-.368-.142-2.983-.019-3.596h5.244V3.979h-5.22c-.117-.429-.147-2.858-.06-3.563.366-.109 9.226-.132 9.847-.013v20.415zm10.162-2.698c.095 1.092.572 1.898 1.395 2.456 1.298.881 2.702.883 4.118.307.547-.222.919-.665 1.182-1.198h4.038c-.154.438-.253.842-.432 1.207-.805 1.653-2.101 2.795-3.817 3.41-2.035.73-4.098.684-6.106-.096-2.236-.867-3.639-2.527-4.271-4.833-.476-1.734-.453-3.46.16-5.162a7.68 7.68 0 017.07-5.07c1.909-.036 3.633.468 5.082 1.755 1.266 1.124 1.979 2.564 2.343 4.194a9.76 9.76 0 01.203 3.01c-.726.038-1.447.013-2.166.018-.728.005-1.456.002-2.184.002h-6.615zm6.605-2.83c0-.088.014-.158-.002-.22-.213-.807-.648-1.463-1.404-1.842-1.206-.606-2.417-.558-3.568.138-.715.432-1.197 1.075-1.462 1.924h6.436zm-27.579-.162h-4.508c-.04-.061-.09-.114-.112-.176-.58-1.555-2.436-2.382-4.258-1.578-1.014.448-1.646 1.252-1.929 2.315-.386 1.458-.215 2.828.781 4.01 1.243 1.475 3.582 1.56 4.836.178.274-.301.459-.683.716-1.073h4.503c-.02.167-.023.317-.057.46-.513 2.125-1.813 3.635-3.712 4.637-3.213 1.695-7.325.935-9.748-1.772-3.302-3.688-2.338-9.502 1.98-11.932 3.266-1.84 7.315-1.266 9.837 1.395a6.61 6.61 0 011.647 3.078c.02.085.037.17.045.256.006.048-.009.1-.022.202zm-26.25-2.022h-5.245V9.52h9.829c.007.191.023.392.023.592l.001 10.035v.644h5.24c.132.389.163 2.929.052 3.616H53.347c-.108-.384-.14-2.748-.045-3.58.569-.045 1.153-.016 1.734-.02.572-.006 1.144-.002 1.716-.002h1.755c.128-.378.16-6.998.033-7.7zM12.098 9.518v3.592c-.84.015-1.665.005-2.49.007-.848.002-1.697 0-2.545 0H4.52v11.225c-.426.12-3.915.142-4.52.04V9.517h12.098zm48.34-3.544c-1.676.003-2.984-1.289-2.98-2.943C57.46 1.408 58.76.114 60.4.101c1.674-.014 2.994 1.271 3.002 2.92.008 1.662-1.286 2.95-2.965 2.953z"/></svg>